<?xml version="1.0" encoding="UTF-8"?>
<svg xmlns="http://www.w3.org/2000/svg" xmlns:xlink="http://www.w3.org/1999/xlink" width="1920" height="1080" viewBox="0 0 1920 1080">
<defs>
<g>
<g id="glyph-0-0">
<path d="M 1.765625 -0.1875 C 2.046875 -0.1875 2.253906 -0.335938 2.390625 -0.640625 C 2.523438 -0.953125 2.59375 -1.414062 2.59375 -2.03125 C 2.59375 -2.644531 2.523438 -3.101562 2.390625 -3.40625 C 2.253906 -3.707031 2.046875 -3.859375 1.765625 -3.859375 C 1.492188 -3.859375 1.285156 -3.707031 1.140625 -3.40625 C 1.003906 -3.101562 0.9375 -2.644531 0.9375 -2.03125 C 0.9375 -1.414062 1.003906 -0.953125 1.140625 -0.640625 C 1.285156 -0.335938 1.492188 -0.1875 1.765625 -0.1875 Z M 1.765625 0.078125 C 1.328125 0.078125 0.984375 -0.101562 0.734375 -0.46875 C 0.484375 -0.84375 0.359375 -1.363281 0.359375 -2.03125 C 0.359375 -2.6875 0.484375 -3.195312 0.734375 -3.5625 C 0.984375 -3.9375 1.328125 -4.125 1.765625 -4.125 C 2.210938 -4.125 2.554688 -3.9375 2.796875 -3.5625 C 3.046875 -3.195312 3.171875 -2.6875 3.171875 -2.03125 C 3.171875 -1.363281 3.046875 -0.84375 2.796875 -0.46875 C 2.554688 -0.101562 2.210938 0.078125 1.765625 0.078125 Z "/>
</g>
<g id="glyph-0-1">
<path d="M 0.53125 -0.28125 C 0.53125 -0.382812 0.5625 -0.46875 0.625 -0.53125 C 0.695312 -0.601562 0.785156 -0.640625 0.890625 -0.640625 C 0.984375 -0.640625 1.066406 -0.601562 1.140625 -0.53125 C 1.210938 -0.46875 1.25 -0.382812 1.25 -0.28125 C 1.25 -0.1875 1.210938 -0.101562 1.140625 -0.03125 C 1.066406 0.0390625 0.984375 0.078125 0.890625 0.078125 C 0.785156 0.078125 0.695312 0.046875 0.625 -0.015625 C 0.5625 -0.0859375 0.53125 -0.175781 0.53125 -0.28125 Z "/>
</g>
<g id="glyph-0-2">
<path d="M 0.796875 0 L 0.796875 -0.28125 L 1.5 -0.28125 L 1.5 -3.65625 L 0.671875 -3.125 L 0.671875 -3.484375 L 1.671875 -4.125 L 2.046875 -4.125 L 2.046875 -0.28125 L 2.75 -0.28125 L 2.75 0 Z "/>
</g>
<g id="glyph-0-3">
<path d="M 0.71875 -3.09375 L 0.40625 -3.09375 L 0.40625 -3.8125 C 0.601562 -3.914062 0.796875 -3.992188 0.984375 -4.046875 C 1.179688 -4.097656 1.375 -4.125 1.5625 -4.125 C 1.988281 -4.125 2.320312 -4.019531 2.5625 -3.8125 C 2.8125 -3.613281 2.9375 -3.335938 2.9375 -2.984375 C 2.9375 -2.585938 2.660156 -2.113281 2.109375 -1.5625 C 2.066406 -1.519531 2.03125 -1.488281 2 -1.46875 L 0.984375 -0.453125 L 2.671875 -0.453125 L 2.671875 -0.9375 L 3 -0.9375 L 3 0 L 0.375 0 L 0.375 -0.296875 L 1.609375 -1.53125 C 1.878906 -1.800781 2.070312 -2.046875 2.1875 -2.265625 C 2.300781 -2.492188 2.359375 -2.734375 2.359375 -2.984375 C 2.359375 -3.253906 2.285156 -3.46875 2.140625 -3.625 C 2.003906 -3.78125 1.8125 -3.859375 1.5625 -3.859375 C 1.300781 -3.859375 1.097656 -3.789062 0.953125 -3.65625 C 0.816406 -3.53125 0.738281 -3.34375 0.71875 -3.09375 Z "/>
</g>
</g>
</defs>
<g fill="rgb(100%, 100%, 100%)" fill-opacity="1">
<use xlink:href="#glyph-0-0" x="30" y="25.157227"/>
<use xlink:href="#glyph-0-1" x="34" y="25.157227"/>
<use xlink:href="#glyph-0-2" x="36" y="25.157227"/>
<use xlink:href="#glyph-0-3" x="40" y="25.157227"/>
</g>
</svg>
