<?xml version="1.0" encoding="UTF-8"?>
<svg xmlns="http://www.w3.org/2000/svg" xmlns:xlink="http://www.w3.org/1999/xlink" width="1920" height="1080" viewBox="0 0 1920 1080">
<defs>
<g>
<g id="glyph-0-0">
<path d="M 0.640625 0 L 0.640625 -0.609375 L 1.734375 -0.609375 L 1.734375 -7.90625 L 0.640625 -7.90625 L 0.640625 -8.515625 L 3.96875 -8.515625 L 3.96875 -7.90625 L 2.890625 -7.90625 L 2.890625 -4.953125 L 7.296875 -4.953125 L 7.296875 -7.90625 L 6.21875 -7.90625 L 6.21875 -8.515625 L 9.53125 -8.515625 L 9.53125 -7.90625 L 8.453125 -7.90625 L 8.453125 -0.609375 L 9.53125 -0.609375 L 9.53125 0 L 6.21875 0 L 6.21875 -0.609375 L 7.296875 -0.609375 L 7.296875 -4.265625 L 2.890625 -4.265625 L 2.890625 -0.609375 L 3.96875 -0.609375 L 3.96875 0 Z "/>
</g>
<g id="glyph-0-1">
<path d="M 1.140625 -7.9375 C 1.140625 -8.113281 1.203125 -8.265625 1.328125 -8.390625 C 1.453125 -8.523438 1.601562 -8.59375 1.78125 -8.59375 C 1.957031 -8.59375 2.109375 -8.523438 2.234375 -8.390625 C 2.359375 -8.265625 2.421875 -8.113281 2.421875 -7.9375 C 2.421875 -7.757812 2.359375 -7.609375 2.234375 -7.484375 C 2.109375 -7.359375 1.957031 -7.296875 1.78125 -7.296875 C 1.601562 -7.296875 1.453125 -7.359375 1.328125 -7.484375 C 1.203125 -7.609375 1.140625 -7.757812 1.140625 -7.9375 Z M 2.46875 -0.609375 L 3.46875 -0.609375 L 3.46875 0 L 0.421875 0 L 0.421875 -0.609375 L 1.421875 -0.609375 L 1.421875 -5.453125 L 0.421875 -5.453125 L 0.421875 -6.0625 L 2.46875 -6.0625 Z "/>
</g>
<g id="glyph-0-2">
<path d="M 6.328125 -2.921875 L 1.8125 -2.921875 L 1.8125 -2.875 C 1.8125 -2.050781 1.960938 -1.429688 2.265625 -1.015625 C 2.578125 -0.609375 3.03125 -0.40625 3.625 -0.40625 C 4.082031 -0.40625 4.457031 -0.523438 4.75 -0.765625 C 5.050781 -1.003906 5.257812 -1.359375 5.375 -1.828125 L 6.21875 -1.828125 C 6.050781 -1.171875 5.742188 -0.671875 5.296875 -0.328125 C 4.847656 0.00390625 4.253906 0.171875 3.515625 0.171875 C 2.628906 0.171875 1.914062 -0.117188 1.375 -0.703125 C 0.84375 -1.285156 0.578125 -2.0625 0.578125 -3.03125 C 0.578125 -3.988281 0.84375 -4.757812 1.375 -5.34375 C 1.90625 -5.925781 2.597656 -6.21875 3.453125 -6.21875 C 4.367188 -6.21875 5.070312 -5.9375 5.5625 -5.375 C 6.050781 -4.8125 6.304688 -3.992188 6.328125 -2.921875 Z M 5.09375 -3.515625 C 5.070312 -4.222656 4.921875 -4.753906 4.640625 -5.109375 C 4.367188 -5.472656 3.972656 -5.65625 3.453125 -5.65625 C 2.972656 -5.65625 2.59375 -5.472656 2.3125 -5.109375 C 2.03125 -4.753906 1.863281 -4.222656 1.8125 -3.515625 Z "/>
</g>
<g id="glyph-0-3">
<path d="M 5.578125 -6.0625 L 5.578125 -4.546875 L 4.96875 -4.546875 C 4.957031 -4.847656 4.875 -5.070312 4.71875 -5.21875 C 4.570312 -5.375 4.359375 -5.453125 4.078125 -5.453125 C 3.554688 -5.453125 3.15625 -5.269531 2.875 -4.90625 C 2.601562 -4.550781 2.46875 -4.039062 2.46875 -3.375 L 2.46875 -0.609375 L 3.6875 -0.609375 L 3.6875 0 L 0.484375 0 L 0.484375 -0.609375 L 1.421875 -0.609375 L 1.421875 -5.453125 L 0.421875 -5.453125 L 0.421875 -6.0625 L 2.46875 -6.0625 L 2.46875 -4.984375 C 2.675781 -5.398438 2.941406 -5.707031 3.265625 -5.90625 C 3.585938 -6.113281 3.984375 -6.21875 4.453125 -6.21875 C 4.617188 -6.21875 4.796875 -6.203125 4.984375 -6.171875 C 5.171875 -6.148438 5.367188 -6.113281 5.578125 -6.0625 Z "/>
</g>
<g id="glyph-0-4">
<path d="M 4.640625 -1.90625 L 4.640625 -3.1875 L 3.296875 -3.1875 C 2.773438 -3.1875 2.382812 -3.070312 2.125 -2.84375 C 1.875 -2.625 1.75 -2.28125 1.75 -1.8125 C 1.75 -1.394531 1.878906 -1.0625 2.140625 -0.8125 C 2.398438 -0.5625 2.75 -0.4375 3.1875 -0.4375 C 3.625 -0.4375 3.972656 -0.570312 4.234375 -0.84375 C 4.503906 -1.113281 4.640625 -1.46875 4.640625 -1.90625 Z M 5.6875 -3.78125 L 5.6875 -0.609375 L 6.625 -0.609375 L 6.625 0 L 4.640625 0 L 4.640625 -0.65625 C 4.410156 -0.375 4.144531 -0.164062 3.84375 -0.03125 C 3.539062 0.101562 3.1875 0.171875 2.78125 0.171875 C 2.101562 0.171875 1.566406 -0.00390625 1.171875 -0.359375 C 0.773438 -0.722656 0.578125 -1.207031 0.578125 -1.8125 C 0.578125 -2.445312 0.800781 -2.9375 1.25 -3.28125 C 1.707031 -3.625 2.347656 -3.796875 3.171875 -3.796875 L 4.640625 -3.796875 L 4.640625 -4.21875 C 4.640625 -4.675781 4.5 -5.03125 4.21875 -5.28125 C 3.945312 -5.53125 3.554688 -5.65625 3.046875 -5.65625 C 2.628906 -5.65625 2.296875 -5.5625 2.046875 -5.375 C 1.804688 -5.1875 1.65625 -4.90625 1.59375 -4.53125 L 1.046875 -4.53125 L 1.046875 -5.75 C 1.410156 -5.90625 1.765625 -6.019531 2.109375 -6.09375 C 2.453125 -6.175781 2.789062 -6.21875 3.125 -6.21875 C 3.957031 -6.21875 4.59375 -6.007812 5.03125 -5.59375 C 5.46875 -5.175781 5.6875 -4.570312 5.6875 -3.78125 Z "/>
</g>
<g id="glyph-0-5">
<path d="M 6 -1.8125 C 5.851562 -1.164062 5.566406 -0.671875 5.140625 -0.328125 C 4.722656 0.00390625 4.179688 0.171875 3.515625 0.171875 C 2.628906 0.171875 1.914062 -0.117188 1.375 -0.703125 C 0.84375 -1.285156 0.578125 -2.0625 0.578125 -3.03125 C 0.578125 -4 0.84375 -4.769531 1.375 -5.34375 C 1.914062 -5.925781 2.628906 -6.21875 3.515625 -6.21875 C 3.898438 -6.21875 4.28125 -6.171875 4.65625 -6.078125 C 5.03125 -5.992188 5.410156 -5.863281 5.796875 -5.6875 L 5.796875 -4.125 L 5.1875 -4.125 C 5.113281 -4.664062 4.941406 -5.054688 4.671875 -5.296875 C 4.398438 -5.535156 4.015625 -5.65625 3.515625 -5.65625 C 2.953125 -5.65625 2.523438 -5.4375 2.234375 -5 C 1.953125 -4.5625 1.8125 -3.90625 1.8125 -3.03125 C 1.8125 -2.15625 1.953125 -1.5 2.234375 -1.0625 C 2.523438 -0.625 2.953125 -0.40625 3.515625 -0.40625 C 3.972656 -0.40625 4.335938 -0.519531 4.609375 -0.75 C 4.878906 -0.988281 5.0625 -1.34375 5.15625 -1.8125 Z "/>
</g>
<g id="glyph-0-6">
<path d="M 0.484375 0 L 0.484375 -0.609375 L 1.421875 -0.609375 L 1.421875 -8.265625 L 0.421875 -8.265625 L 0.421875 -8.875 L 2.46875 -8.875 L 2.46875 -4.984375 C 2.664062 -5.390625 2.914062 -5.695312 3.21875 -5.90625 C 3.53125 -6.113281 3.894531 -6.21875 4.3125 -6.21875 C 4.976562 -6.21875 5.46875 -6.023438 5.78125 -5.640625 C 6.09375 -5.265625 6.25 -4.671875 6.25 -3.859375 L 6.25 -0.609375 L 7.1875 -0.609375 L 7.1875 0 L 4.296875 0 L 4.296875 -0.609375 L 5.203125 -0.609375 L 5.203125 -3.515625 C 5.203125 -4.265625 5.109375 -4.773438 4.921875 -5.046875 C 4.742188 -5.316406 4.425781 -5.453125 3.96875 -5.453125 C 3.476562 -5.453125 3.101562 -5.273438 2.84375 -4.921875 C 2.59375 -4.566406 2.46875 -4.050781 2.46875 -3.375 L 2.46875 -0.609375 L 3.390625 -0.609375 L 3.390625 0 Z "/>
</g>
<g id="glyph-0-7">
<path d="M 2.390625 -0.609375 L 3.390625 -0.609375 L 3.390625 0 L 0.34375 0 L 0.34375 -0.609375 L 1.34375 -0.609375 L 1.34375 -8.265625 L 0.34375 -8.265625 L 0.34375 -8.875 L 2.390625 -8.875 Z "/>
</g>
<g id="glyph-0-8">
</g>
<g id="glyph-0-9">
<path d="M 8.234375 -2.25 C 7.984375 -1.457031 7.5625 -0.851562 6.96875 -0.4375 C 6.375 -0.03125 5.625 0.171875 4.71875 0.171875 C 4.164062 0.171875 3.648438 0.078125 3.171875 -0.109375 C 2.703125 -0.304688 2.285156 -0.585938 1.921875 -0.953125 C 1.492188 -1.378906 1.175781 -1.863281 0.96875 -2.40625 C 0.757812 -2.945312 0.65625 -3.5625 0.65625 -4.25 C 0.65625 -5.570312 1.035156 -6.632812 1.796875 -7.4375 C 2.566406 -8.25 3.578125 -8.65625 4.828125 -8.65625 C 5.285156 -8.65625 5.773438 -8.59375 6.296875 -8.46875 C 6.828125 -8.351562 7.394531 -8.171875 8 -7.921875 L 8 -5.96875 L 7.359375 -5.96875 C 7.210938 -6.675781 6.925781 -7.195312 6.5 -7.53125 C 6.082031 -7.875 5.488281 -8.046875 4.71875 -8.046875 C 3.8125 -8.046875 3.125 -7.722656 2.65625 -7.078125 C 2.1875 -6.441406 1.953125 -5.5 1.953125 -4.25 C 1.953125 -3 2.1875 -2.050781 2.65625 -1.40625 C 3.125 -0.757812 3.8125 -0.4375 4.71875 -0.4375 C 5.351562 -0.4375 5.875 -0.585938 6.28125 -0.890625 C 6.695312 -1.191406 7 -1.644531 7.1875 -2.25 Z "/>
</g>
<g id="glyph-0-10">
<path d="M 4.125 -6.0625 L 6.09375 -6.0625 L 6.09375 -0.609375 L 7.078125 -0.609375 L 7.078125 0 L 5.046875 0 L 5.046875 -1.078125 C 4.847656 -0.671875 4.59375 -0.359375 4.28125 -0.140625 C 3.976562 0.0664062 3.625 0.171875 3.21875 0.171875 C 2.550781 0.171875 2.054688 -0.0195312 1.734375 -0.40625 C 1.421875 -0.789062 1.265625 -1.390625 1.265625 -2.203125 L 1.265625 -5.453125 L 0.3125 -5.453125 L 0.3125 -6.0625 L 2.3125 -6.0625 L 2.3125 -2.53125 C 2.3125 -1.789062 2.398438 -1.285156 2.578125 -1.015625 C 2.765625 -0.742188 3.085938 -0.609375 3.546875 -0.609375 C 4.035156 -0.609375 4.40625 -0.785156 4.65625 -1.140625 C 4.914062 -1.492188 5.046875 -2.015625 5.046875 -2.703125 L 5.046875 -5.453125 L 4.125 -5.453125 Z "/>
</g>
<g id="glyph-0-11">
<path d="M 0.65625 -0.34375 L 0.65625 -1.75 L 1.265625 -1.75 C 1.273438 -1.300781 1.410156 -0.960938 1.671875 -0.734375 C 1.941406 -0.515625 2.34375 -0.40625 2.875 -0.40625 C 3.34375 -0.40625 3.695312 -0.488281 3.9375 -0.65625 C 4.1875 -0.832031 4.3125 -1.09375 4.3125 -1.4375 C 4.3125 -1.695312 4.222656 -1.910156 4.046875 -2.078125 C 3.867188 -2.242188 3.488281 -2.421875 2.90625 -2.609375 L 2.15625 -2.859375 C 1.632812 -3.023438 1.253906 -3.234375 1.015625 -3.484375 C 0.785156 -3.734375 0.671875 -4.054688 0.671875 -4.453125 C 0.671875 -5.003906 0.875 -5.4375 1.28125 -5.75 C 1.6875 -6.0625 2.25 -6.21875 2.96875 -6.21875 C 3.28125 -6.21875 3.613281 -6.175781 3.96875 -6.09375 C 4.320312 -6.007812 4.6875 -5.890625 5.0625 -5.734375 L 5.0625 -4.40625 L 4.46875 -4.40625 C 4.445312 -4.800781 4.304688 -5.109375 4.046875 -5.328125 C 3.796875 -5.546875 3.445312 -5.65625 3 -5.65625 C 2.5625 -5.65625 2.226562 -5.578125 2 -5.421875 C 1.769531 -5.265625 1.65625 -5.03125 1.65625 -4.71875 C 1.65625 -4.46875 1.738281 -4.265625 1.90625 -4.109375 C 2.082031 -3.953125 2.425781 -3.796875 2.9375 -3.640625 L 3.765625 -3.390625 C 4.347656 -3.210938 4.765625 -2.988281 5.015625 -2.71875 C 5.265625 -2.445312 5.390625 -2.101562 5.390625 -1.6875 C 5.390625 -1.113281 5.171875 -0.660156 4.734375 -0.328125 C 4.296875 0.00390625 3.691406 0.171875 2.921875 0.171875 C 2.523438 0.171875 2.140625 0.128906 1.765625 0.046875 C 1.398438 -0.0351562 1.03125 -0.164062 0.65625 -0.34375 Z "/>
</g>
<g id="glyph-0-12">
<path d="M 1.265625 -5.453125 L 0.34375 -5.453125 L 0.34375 -6.0625 L 1.265625 -6.0625 L 1.265625 -7.9375 L 2.3125 -7.9375 L 2.3125 -6.0625 L 4.28125 -6.0625 L 4.28125 -5.453125 L 2.3125 -5.453125 L 2.3125 -1.59375 C 2.3125 -1.082031 2.359375 -0.753906 2.453125 -0.609375 C 2.554688 -0.472656 2.742188 -0.40625 3.015625 -0.40625 C 3.285156 -0.40625 3.484375 -0.484375 3.609375 -0.640625 C 3.734375 -0.804688 3.800781 -1.066406 3.8125 -1.421875 L 4.59375 -1.421875 C 4.5625 -0.867188 4.410156 -0.460938 4.140625 -0.203125 C 3.878906 0.046875 3.472656 0.171875 2.921875 0.171875 C 2.316406 0.171875 1.890625 0.0351562 1.640625 -0.234375 C 1.390625 -0.503906 1.265625 -0.957031 1.265625 -1.59375 Z "/>
</g>
<g id="glyph-0-13">
<path d="M 0.484375 0 L 0.484375 -0.609375 L 1.421875 -0.609375 L 1.421875 -5.453125 L 0.421875 -5.453125 L 0.421875 -6.0625 L 2.46875 -6.0625 L 2.46875 -4.984375 C 2.664062 -5.390625 2.914062 -5.695312 3.21875 -5.90625 C 3.53125 -6.113281 3.894531 -6.21875 4.3125 -6.21875 C 4.976562 -6.21875 5.46875 -6.023438 5.78125 -5.640625 C 6.09375 -5.265625 6.25 -4.671875 6.25 -3.859375 L 6.25 -0.609375 L 7.1875 -0.609375 L 7.1875 0 L 4.296875 0 L 4.296875 -0.609375 L 5.203125 -0.609375 L 5.203125 -3.515625 C 5.203125 -4.265625 5.109375 -4.773438 4.921875 -5.046875 C 4.742188 -5.316406 4.425781 -5.453125 3.96875 -5.453125 C 3.476562 -5.453125 3.101562 -5.273438 2.84375 -4.921875 C 2.59375 -4.566406 2.46875 -4.050781 2.46875 -3.375 L 2.46875 -0.609375 L 3.390625 -0.609375 L 3.390625 0 Z "/>
</g>
<g id="glyph-0-14">
<path d="M 6.125 -5.453125 L 6.125 -0.125 C 6.125 0.738281 5.882812 1.40625 5.40625 1.875 C 4.925781 2.351562 4.242188 2.59375 3.359375 2.59375 C 2.960938 2.59375 2.582031 2.554688 2.21875 2.484375 C 1.851562 2.410156 1.503906 2.300781 1.171875 2.15625 L 1.171875 0.890625 L 1.71875 0.890625 C 1.78125 1.285156 1.9375 1.570312 2.1875 1.75 C 2.445312 1.9375 2.816406 2.03125 3.296875 2.03125 C 3.910156 2.03125 4.359375 1.851562 4.640625 1.5 C 4.929688 1.15625 5.078125 0.613281 5.078125 -0.125 L 5.078125 -0.953125 C 4.867188 -0.566406 4.601562 -0.28125 4.28125 -0.09375 C 3.96875 0.0820312 3.582031 0.171875 3.125 0.171875 C 2.375 0.171875 1.757812 -0.125 1.28125 -0.71875 C 0.8125 -1.3125 0.578125 -2.082031 0.578125 -3.03125 C 0.578125 -3.976562 0.8125 -4.742188 1.28125 -5.328125 C 1.757812 -5.921875 2.375 -6.21875 3.125 -6.21875 C 3.582031 -6.21875 3.96875 -6.128906 4.28125 -5.953125 C 4.601562 -5.773438 4.867188 -5.492188 5.078125 -5.109375 L 5.078125 -6.0625 L 7.125 -6.0625 L 7.125 -5.453125 Z M 5.078125 -3.328125 C 5.078125 -4.054688 4.9375 -4.609375 4.65625 -4.984375 C 4.375 -5.367188 3.96875 -5.5625 3.4375 -5.5625 C 2.90625 -5.5625 2.5 -5.347656 2.21875 -4.921875 C 1.945312 -4.503906 1.8125 -3.875 1.8125 -3.03125 C 1.8125 -2.195312 1.945312 -1.5625 2.21875 -1.125 C 2.5 -0.695312 2.90625 -0.484375 3.4375 -0.484375 C 3.96875 -0.484375 4.375 -0.675781 4.65625 -1.0625 C 4.9375 -1.445312 5.078125 -2.003906 5.078125 -2.734375 Z "/>
</g>
<g id="glyph-0-15">
<path d="M 3.71875 1.8125 C 2.800781 1.40625 2.101562 0.753906 1.625 -0.140625 C 1.15625 -1.046875 0.921875 -2.171875 0.921875 -3.515625 C 0.921875 -4.867188 1.15625 -5.992188 1.625 -6.890625 C 2.101562 -7.796875 2.800781 -8.457031 3.71875 -8.875 L 3.71875 -8.3125 C 3.132812 -7.90625 2.710938 -7.335938 2.453125 -6.609375 C 2.203125 -5.878906 2.078125 -4.847656 2.078125 -3.515625 C 2.078125 -2.191406 2.203125 -1.164062 2.453125 -0.4375 C 2.710938 0.289062 3.132812 0.859375 3.71875 1.265625 Z "/>
</g>
<g id="glyph-0-16">
<path d="M 2.34375 -3.078125 L 5.453125 -3.078125 L 3.890625 -7.125 Z M -0.0625 0 L -0.0625 -0.609375 L 0.671875 -0.609375 L 3.703125 -8.515625 L 4.671875 -8.515625 L 7.703125 -0.609375 L 8.546875 -0.609375 L 8.546875 0 L 5.453125 0 L 5.453125 -0.609375 L 6.390625 -0.609375 L 5.6875 -2.46875 L 2.109375 -2.46875 L 1.390625 -0.609375 L 2.328125 -0.609375 L 2.328125 0 Z "/>
</g>
<g id="glyph-0-17">
<path d="M 3.515625 -0.40625 C 4.078125 -0.40625 4.5 -0.625 4.78125 -1.0625 C 5.070312 -1.507812 5.21875 -2.164062 5.21875 -3.03125 C 5.21875 -3.894531 5.070312 -4.546875 4.78125 -4.984375 C 4.5 -5.429688 4.078125 -5.65625 3.515625 -5.65625 C 2.953125 -5.65625 2.523438 -5.429688 2.234375 -4.984375 C 1.953125 -4.546875 1.8125 -3.894531 1.8125 -3.03125 C 1.8125 -2.164062 1.953125 -1.507812 2.234375 -1.0625 C 2.523438 -0.625 2.953125 -0.40625 3.515625 -0.40625 Z M 3.515625 0.171875 C 2.628906 0.171875 1.914062 -0.117188 1.375 -0.703125 C 0.84375 -1.285156 0.578125 -2.0625 0.578125 -3.03125 C 0.578125 -4 0.84375 -4.769531 1.375 -5.34375 C 1.914062 -5.925781 2.628906 -6.21875 3.515625 -6.21875 C 4.398438 -6.21875 5.109375 -5.925781 5.640625 -5.34375 C 6.171875 -4.769531 6.4375 -4 6.4375 -3.03125 C 6.4375 -2.0625 6.171875 -1.285156 5.640625 -0.703125 C 5.109375 -0.117188 4.398438 0.171875 3.515625 0.171875 Z "/>
</g>
<g id="glyph-0-18">
<path d="M 6.046875 -4.875 C 6.242188 -5.320312 6.5 -5.65625 6.8125 -5.875 C 7.132812 -6.101562 7.503906 -6.21875 7.921875 -6.21875 C 8.554688 -6.21875 9.023438 -6.019531 9.328125 -5.625 C 9.640625 -5.238281 9.796875 -4.648438 9.796875 -3.859375 L 9.796875 -0.609375 L 10.75 -0.609375 L 10.75 0 L 7.84375 0 L 7.84375 -0.609375 L 8.75 -0.609375 L 8.75 -3.734375 C 8.75 -4.347656 8.65625 -4.785156 8.46875 -5.046875 C 8.289062 -5.316406 7.992188 -5.453125 7.578125 -5.453125 C 7.109375 -5.453125 6.75 -5.273438 6.5 -4.921875 C 6.257812 -4.566406 6.140625 -4.050781 6.140625 -3.375 L 6.140625 -0.609375 L 7.046875 -0.609375 L 7.046875 0 L 4.171875 0 L 4.171875 -0.609375 L 5.09375 -0.609375 L 5.09375 -3.765625 C 5.09375 -4.367188 5 -4.800781 4.8125 -5.0625 C 4.632812 -5.320312 4.332031 -5.453125 3.90625 -5.453125 C 3.4375 -5.453125 3.078125 -5.273438 2.828125 -4.921875 C 2.585938 -4.566406 2.46875 -4.050781 2.46875 -3.375 L 2.46875 -0.609375 L 3.390625 -0.609375 L 3.390625 0 L 0.484375 0 L 0.484375 -0.609375 L 1.421875 -0.609375 L 1.421875 -5.453125 L 0.421875 -5.453125 L 0.421875 -6.0625 L 2.46875 -6.0625 L 2.46875 -4.984375 C 2.664062 -5.378906 2.914062 -5.679688 3.21875 -5.890625 C 3.519531 -6.109375 3.859375 -6.21875 4.234375 -6.21875 C 4.703125 -6.21875 5.09375 -6.097656 5.40625 -5.859375 C 5.726562 -5.628906 5.941406 -5.300781 6.046875 -4.875 Z "/>
</g>
<g id="glyph-0-19">
<path d="M 2.890625 0 L 0.65625 -5.453125 L -0.03125 -5.453125 L -0.03125 -6.0625 L 2.75 -6.0625 L 2.75 -5.453125 L 1.78125 -5.453125 L 3.484375 -1.28125 L 5.1875 -5.453125 L 4.28125 -5.453125 L 4.28125 -6.0625 L 6.5625 -6.0625 L 6.5625 -5.453125 L 5.875 -5.453125 L 3.65625 0 Z "/>
</g>
<g id="glyph-0-20">
<path d="M 0.828125 1.8125 L 0.828125 1.265625 C 1.410156 0.859375 1.828125 0.289062 2.078125 -0.4375 C 2.335938 -1.164062 2.46875 -2.191406 2.46875 -3.515625 C 2.46875 -4.847656 2.335938 -5.878906 2.078125 -6.609375 C 1.828125 -7.335938 1.410156 -7.90625 0.828125 -8.3125 L 0.828125 -8.875 C 1.753906 -8.457031 2.453125 -7.796875 2.921875 -6.890625 C 3.390625 -5.992188 3.625 -4.867188 3.625 -3.515625 C 3.625 -2.171875 3.390625 -1.046875 2.921875 -0.140625 C 2.453125 0.753906 1.753906 1.40625 0.828125 1.8125 Z "/>
</g>
</g>
</defs>
<g fill="rgb(100%, 100%, 100%)" fill-opacity="1">
<use xlink:href="#glyph-0-0" x="30" y="30.829102"/>
<use xlink:href="#glyph-0-1" x="40" y="30.829102"/>
<use xlink:href="#glyph-0-2" x="44" y="30.829102"/>
<use xlink:href="#glyph-0-3" x="51" y="30.829102"/>
<use xlink:href="#glyph-0-4" x="57" y="30.829102"/>
<use xlink:href="#glyph-0-3" x="64" y="30.829102"/>
<use xlink:href="#glyph-0-5" x="70" y="30.829102"/>
<use xlink:href="#glyph-0-6" x="77" y="30.829102"/>
<use xlink:href="#glyph-0-1" x="85" y="30.829102"/>
<use xlink:href="#glyph-0-5" x="89" y="30.829102"/>
<use xlink:href="#glyph-0-4" x="96" y="30.829102"/>
<use xlink:href="#glyph-0-7" x="103" y="30.829102"/>
<use xlink:href="#glyph-0-8" x="107" y="30.829102"/>
<use xlink:href="#glyph-0-9" x="111" y="30.829102"/>
<use xlink:href="#glyph-0-7" x="120" y="30.829102"/>
<use xlink:href="#glyph-0-10" x="124" y="30.829102"/>
<use xlink:href="#glyph-0-11" x="132" y="30.829102"/>
<use xlink:href="#glyph-0-12" x="138" y="30.829102"/>
<use xlink:href="#glyph-0-2" x="143" y="30.829102"/>
<use xlink:href="#glyph-0-3" x="150" y="30.829102"/>
<use xlink:href="#glyph-0-1" x="156" y="30.829102"/>
<use xlink:href="#glyph-0-13" x="160" y="30.829102"/>
<use xlink:href="#glyph-0-14" x="168" y="30.829102"/>
<use xlink:href="#glyph-0-8" x="175" y="30.829102"/>
<use xlink:href="#glyph-0-15" x="179" y="30.829102"/>
<use xlink:href="#glyph-0-16" x="184" y="30.829102"/>
<use xlink:href="#glyph-0-14" x="192" y="30.829102"/>
<use xlink:href="#glyph-0-14" x="199" y="30.829102"/>
<use xlink:href="#glyph-0-7" x="206" y="30.829102"/>
<use xlink:href="#glyph-0-17" x="210" y="30.829102"/>
<use xlink:href="#glyph-0-18" x="217" y="30.829102"/>
<use xlink:href="#glyph-0-2" x="228" y="30.829102"/>
<use xlink:href="#glyph-0-3" x="235" y="30.829102"/>
<use xlink:href="#glyph-0-4" x="241" y="30.829102"/>
<use xlink:href="#glyph-0-12" x="248" y="30.829102"/>
<use xlink:href="#glyph-0-1" x="253" y="30.829102"/>
<use xlink:href="#glyph-0-19" x="257" y="30.829102"/>
<use xlink:href="#glyph-0-2" x="264" y="30.829102"/>
<use xlink:href="#glyph-0-20" x="271" y="30.829102"/>
</g>
</svg>
