<?xml version="1.0" encoding="UTF-8"?>
<svg xmlns="http://www.w3.org/2000/svg" xmlns:xlink="http://www.w3.org/1999/xlink" width="1920" height="1080" viewBox="0 0 1920 1080">
<defs>
<g>
<g id="glyph-0-0">
<path d="M 3.078125 -4.453125 L 3.078125 -3.96875 L 1.03125 -3.96875 L 1.03125 -2.6875 C 1.132812 -2.757812 1.253906 -2.8125 1.390625 -2.84375 C 1.535156 -2.882812 1.691406 -2.90625 1.859375 -2.90625 C 2.335938 -2.90625 2.71875 -2.769531 3 -2.5 C 3.28125 -2.238281 3.421875 -1.875 3.421875 -1.40625 C 3.421875 -0.9375 3.28125 -0.566406 3 -0.296875 C 2.71875 -0.0351562 2.320312 0.09375 1.8125 0.09375 C 1.601562 0.09375 1.390625 0.0664062 1.171875 0.015625 C 0.960938 -0.0351562 0.742188 -0.113281 0.515625 -0.21875 L 0.515625 -1.078125 L 0.859375 -1.078125 C 0.878906 -0.796875 0.96875 -0.578125 1.125 -0.421875 C 1.289062 -0.273438 1.519531 -0.203125 1.8125 -0.203125 C 2.125 -0.203125 2.363281 -0.304688 2.53125 -0.515625 C 2.695312 -0.722656 2.78125 -1.019531 2.78125 -1.40625 C 2.78125 -1.789062 2.695312 -2.085938 2.53125 -2.296875 C 2.363281 -2.503906 2.125 -2.609375 1.8125 -2.609375 C 1.632812 -2.609375 1.472656 -2.578125 1.328125 -2.515625 C 1.191406 -2.453125 1.070312 -2.351562 0.96875 -2.21875 L 0.71875 -2.21875 L 0.71875 -4.453125 Z "/>
</g>
</g>
</defs>
<g fill="rgb(100%, 100%, 100%)" fill-opacity="1">
<use xlink:href="#glyph-0-0" x="30" y="25.671875"/>
</g>
</svg>
